<?xml version="1.0" standalone="no"?>
<!DOCTYPE svg PUBLIC "-//W3C//DTD SVG 20010904//EN"
 "http://www.w3.org/TR/2001/REC-SVG-20010904/DTD/svg10.dtd">
<svg version="1.0" xmlns="http://www.w3.org/2000/svg"
 width="1000.000000pt" height="1000.000000pt" viewBox="0 0 1000.000000 1000.000000"
 preserveAspectRatio="xMidYMid meet">
<metadata>
Created by potrace 1.11, written by Peter Selinger 2001-2013
</metadata>
<g transform="translate(0.000000,1000.000000) scale(0.100000,-0.100000)"
fill="#000000" stroke="none">
<path d="M4475 9830 c-783 -7 -856 -11 -1155 -66 -739 -136 -1429 -489 -1964
-1004 -670 -645 -1070 -1464 -1171 -2395 -13 -115 -15 -296 -15 -1015 1 -1007
12 -1594 34 -1758 95 -718 366 -1370 790 -1907 580 -733 1379 -1226 2276
-1403 352 -70 285 -67 1625 -66 1280 1 1349 3 1651 50 686 105 1339 403 1889
862 50 42 160 146 245 231 380 381 673 833 863 1331 118 309 186 589 234 955
17 129 18 226 15 1260 -3 1121 -9 1356 -38 1580 -201 1555 -1328 2832 -2849
3230 -154 41 -349 77 -535 101 -162 20 -746 25 -1895 14z m303 -1405 l2 -400
226 0 226 0 -7 403 -8 402 262 0 261 0 0 -238 c0 -131 3 -341 7 -466 l6 -228
31 -11 c73 -25 309 -153 395 -215 105 -74 274 -236 368 -353 187 -230 315
-488 371 -747 l20 -91 -233 -75 c-128 -42 -237 -76 -242 -76 -6 0 -20 46 -32
103 -59 266 -201 509 -423 722 -95 91 -243 204 -254 193 -2 -3 -1 -487 2
-1076 l7 -1071 91 -31 c440 -153 824 -475 996 -835 96 -201 130 -350 137 -595
4 -157 2 -203 -15 -306 -38 -220 -111 -408 -225 -582 -83 -125 -110 -158 -215
-266 -188 -191 -396 -325 -665 -426 l-88 -34 2 -245 c1 -218 -2 -255 -20 -324
-68 -258 -271 -462 -531 -533 -89 -25 -281 -25 -370 0 -260 71 -462 274 -531
533 -18 66 -22 117 -26 334 l-5 255 -52 18 c-74 26 -276 128 -359 182 -382
247 -690 646 -827 1072 -36 113 -74 279 -82 361 l-3 35 240 68 c132 37 242 68
245 68 3 0 15 -59 27 -131 77 -451 357 -876 721 -1091 44 -27 82 -48 85 -48 7
0 -1 2076 -9 2216 l-6 101 -96 32 c-276 92 -586 287 -742 465 -326 373 -411
969 -209 1464 162 397 542 757 975 922 l62 24 -6 458 -5 457 74 4 c41 2 157 3
259 3 l185 -1 3 -400z"/>
<path d="M4811 7533 l-24 -5 7 -1061 c4 -584 9 -1063 11 -1065 4 -4 412 -82
429 -82 10 0 0 2199 -9 2209 -8 7 -382 11 -414 4z"/>
<path d="M4192 7326 c-211 -130 -375 -309 -468 -511 -63 -137 -77 -209 -78
-395 0 -136 4 -180 21 -251 67 -266 232 -457 515 -595 l93 -45 2 313 c2 172
-1 587 -5 921 l-7 608 -73 -45z"/>
<path d="M4807 4253 c2 -346 6 -877 9 -1181 l6 -552 27 -7 c34 -9 398 -10 406
-1 4 4 3 521 -1 1150 l-9 1143 -200 37 c-110 20 -209 37 -220 38 -21 0 -21 -2
-18 -627z"/>
<path d="M5770 4201 c0 -252 3 -701 7 -999 l6 -542 76 41 c246 133 415 304
517 525 132 284 131 652 -2 917 -73 145 -163 248 -308 351 -78 56 -215 135
-268 155 l-28 11 0 -459z"/>
<path d="M4820 1872 c0 -170 10 -217 58 -273 87 -101 227 -106 325 -11 53 51
67 107 67 261 0 69 -3 135 -6 146 -5 19 -14 20 -225 21 l-219 0 0 -144z"/>
</g>
</svg>
