<svg xmlns="http://www.w3.org/2000/svg" xmlns:xlink="http://www.w3.org/1999/xlink" viewBox="0 0 404.52 85.04"><defs><style>.cls-1{fill:url(#Безымянный_градиент_28);}.cls-2{fill:#0e1323;}</style><linearGradient id="Безымянный_градиент_28" x1="71.51" y1="71.51" x2="11.38" y2="11.38" gradientUnits="userSpaceOnUse"><stop offset="0" stop-color="#0e1323"/><stop offset="1" stop-color="#2c384c"/></linearGradient></defs><title>SU_logotype</title><g id="Слой_2" data-name="Слой 2"><g id="Слой_1-2" data-name="Слой 1"><path class="cls-1" d="M32.29,29.68c0,3.83,2.5,6,5.27,7.42V22.37C34.28,23.7,32.29,26.28,32.29,29.68ZM46.16,44.62,40.42,42V63.48a20.12,20.12,0,0,0,2.59.17,18.94,18.94,0,0,0,3.29-.28V47.2c1,.42,2,.83,2.85,1.27V62.6c3.81-1.49,6-4.46,6-8.22C55.18,48.52,51.07,46.69,46.16,44.62ZM53.15,0H31.89A31.89,31.89,0,0,0,0,31.89V53.15A31.89,31.89,0,0,0,31.89,85H53.15A31.89,31.89,0,0,0,85,53.15V31.89A31.89,31.89,0,0,0,53.15,0ZM42.94,66.62c-.87,0-1.71-.05-2.52-.13v2.12a2.94,2.94,0,0,0,5.87.28,17.84,17.84,0,0,0,2.86-.66v.38a5.8,5.8,0,1,1-11.59,0V66a21.46,21.46,0,0,1-11-6.39l2.09-2.25a19.5,19.5,0,0,0,8.9,5.51V40.78C33.53,38.94,29,36,29,29.88c0-5.07,3.4-9,8.54-10.62V10.63h2.86v8a19.11,19.11,0,0,1,2.77-.2,19.59,19.59,0,0,1,3.11.25v-8h2.85v8.71A18.64,18.64,0,0,1,56.81,24l-1.87,2.16a16.16,16.16,0,0,0-11.81-4.77,16.71,16.71,0,0,0-2.71.22V38.4l.57.24L46.3,41V24.18a16.76,16.76,0,0,1,2.85.76V42.29c5.06,2.24,9.31,5.2,9.31,11.8C58.46,61.22,52.37,66.62,42.94,66.62Z"/><path class="cls-2" d="M117.29,56.63a17.36,17.36,0,0,0,10,3.21c3.68,0,7.37-1.4,7.37-5.22,0-8.65-19.11-7.58-19.11-21.06,0-6.5,5.17-12.2,14.35-12.2a24.91,24.91,0,0,1,10.79,2.22V31a22.91,22.91,0,0,0-10.52-2.81c-3.09,0-6,1.2-6,4.75,0,8.12,19.11,7,19.11,21,0,7.85-6.7,12.68-15.75,12.68a23.69,23.69,0,0,1-13.34-3.83Z"/><path class="cls-2" d="M152.08,58.1V40.47h-5.7V34.24h5.7V26.86l8-2.35v9.73h9.59l-1.94,6.23h-7.65V56.16c0,3,1,4,3.09,4A9,9,0,0,0,168,58.64l2.42,5.49a18.06,18.06,0,0,1-9.25,2.49C155.5,66.62,152.08,63.4,152.08,58.1Z"/><path class="cls-2" d="M193,62.93a13.05,13.05,0,0,1-9.12,3.69c-6,0-10.52-4-10.52-10.13a9,9,0,0,1,5.36-8.65A19.72,19.72,0,0,1,186.87,46l5.43-.2v-1c0-3.69-2.42-5.3-6.1-5.3a18.08,18.08,0,0,0-8.32,2.21l-2.61-5.16a24.9,24.9,0,0,1,12.27-3.15c8.51,0,12.73,3.89,12.73,11.53V57.83a34.49,34.49,0,0,0,.61,8.11h-6.71Zm-5-11.6a10,10,0,0,0-4.63,1A3.82,3.82,0,0,0,181.44,56c0,2.74,1.81,4.35,4.69,4.35A9.86,9.86,0,0,0,192.3,58V51.2Z"/><path class="cls-2" d="M206.84,64.4V18.48h8V34.37a20.48,20.48,0,0,1,6.17-.94c8.44,0,15.21,5.57,15.21,15.62,0,11.13-8.17,17.57-19,17.57A22.67,22.67,0,0,1,206.84,64.4ZM228,49.52c0-5.56-3.09-9.45-8.31-9.45a11.6,11.6,0,0,0-4.83,1V59.44a12.35,12.35,0,0,0,3.69.54C224.27,60,228,55.75,228,49.52Z"/><path class="cls-2" d="M240.49,18.48h8V56.63c0,2.21.88,2.88,2.35,2.88a6.87,6.87,0,0,0,2-.4l1.54,6.16a15.49,15.49,0,0,1-5.9,1.14c-5.29,0-8-2.61-8-7.64Z"/><path class="cls-2" d="M263.62,52.27c.2,4.89,3.68,8,9,8a15.91,15.91,0,0,0,8-2.14l2.41,5.5a21.27,21.27,0,0,1-11.19,3c-11.53,0-16.23-7.92-16.23-16.5,0-9.52,5.23-16.69,14.28-16.69s14.08,6.44,14.08,17v1.88Zm12.2-5.57c-.07-3.62-1.88-7.17-6.1-7.17-4,0-6.1,3.35-6.17,7.17Z"/><path class="cls-2" d="M291.57,58a19.36,19.36,0,0,1-1.68-8.58V21.77h8.05V48.92a13.25,13.25,0,0,0,1.21,6c1.54,3.15,4.62,5,9.05,5s7.5-1.81,9.05-5a13.49,13.49,0,0,0,1.2-6V21.77h8.05V49.45a19.51,19.51,0,0,1-1.68,8.65c-2.75,5.7-8.51,8.52-16.62,8.52S294.25,63.8,291.57,58Z"/><path class="cls-2" d="M331.19,34.24H338l.8,3.55c3.35-2.62,6.91-4.36,10.86-4.36,5,0,10.19,2.48,10.19,11.53v21h-8V47.44c0-3.89-.81-7-4.9-7-2.61,0-5.43,1.41-7.77,3.36V65.94h-8Z"/><path class="cls-2" d="M366.58,24.31a4.93,4.93,0,0,1,9.86,0,4.83,4.83,0,0,1-5,4.76A4.72,4.72,0,0,1,366.58,24.31Zm.87,9.93h8.05v31.7h-8.05Z"/><path class="cls-2" d="M386.22,58.1V40.47h-5.7V34.24h5.7V26.86l8-2.35v9.73h9.59l-2,6.23H394.2V56.16c0,3,1,4,3.08,4a9,9,0,0,0,4.83-1.54l2.41,5.49a18.06,18.06,0,0,1-9.25,2.49C389.64,66.62,386.22,63.4,386.22,58.1Z"/></g></g></svg>