<svg width="173" height="40" viewBox="0 0 173 40" fill="none" xmlns="http://www.w3.org/2000/svg">
<path d="M7.08 25.288C5.672 25.288 4.472 25.032 3.48 24.52C2.504 24.008 1.664 23.32 0.96 22.456L2.832 20.704C3.424 21.424 4.072 21.968 4.776 22.336C5.496 22.704 6.312 22.888 7.224 22.888C8.296 22.888 9.104 22.648 9.648 22.168C10.192 21.688 10.464 21.04 10.464 20.224C10.464 19.568 10.272 19.048 9.888 18.664C9.504 18.28 8.824 17.992 7.848 17.8L6.36 17.536C4.728 17.232 3.504 16.696 2.688 15.928C1.872 15.16 1.464 14.104 1.464 12.76C1.464 12.024 1.6 11.36 1.872 10.768C2.16 10.16 2.552 9.656 3.048 9.256C3.56 8.84 4.176 8.52 4.896 8.296C5.616 8.072 6.424 7.96 7.32 7.96C8.584 7.96 9.68 8.184 10.608 8.632C11.536 9.064 12.328 9.696 12.984 10.528L11.088 12.208C10.656 11.648 10.128 11.2 9.504 10.864C8.88 10.528 8.104 10.36 7.176 10.36C6.216 10.36 5.472 10.552 4.944 10.936C4.416 11.32 4.152 11.88 4.152 12.616C4.152 13.32 4.368 13.848 4.8 14.2C5.232 14.536 5.904 14.792 6.816 14.968L8.304 15.28C9.984 15.6 11.208 16.144 11.976 16.912C12.76 17.68 13.152 18.736 13.152 20.08C13.152 20.864 13.016 21.576 12.744 22.216C12.472 22.856 12.072 23.408 11.544 23.872C11.032 24.32 10.4 24.672 9.648 24.928C8.896 25.168 8.04 25.288 7.08 25.288ZM19.6249 25C18.7129 25 18.0249 24.768 17.5609 24.304C17.0969 23.824 16.8649 23.152 16.8649 22.288V14.656H14.9209V12.52H15.9769C16.4089 12.52 16.7049 12.424 16.8649 12.232C17.0409 12.04 17.1289 11.728 17.1289 11.296V9.112H19.4809V12.52H22.0969V14.656H19.4809V22.864H21.9049V25H19.6249ZM34.0785 25C33.3905 25 32.8625 24.808 32.4945 24.424C32.1265 24.024 31.9025 23.52 31.8225 22.912H31.7025C31.4625 23.696 31.0225 24.288 30.3825 24.688C29.7425 25.088 28.9665 25.288 28.0545 25.288C26.7585 25.288 25.7585 24.952 25.0545 24.28C24.3665 23.608 24.0225 22.704 24.0225 21.568C24.0225 20.32 24.4705 19.384 25.3665 18.76C26.2785 18.136 27.6065 17.824 29.3505 17.824H31.6065V16.768C31.6065 16 31.3985 15.408 30.9825 14.992C30.5665 14.576 29.9185 14.368 29.0385 14.368C28.3025 14.368 27.7025 14.528 27.2385 14.848C26.7745 15.168 26.3825 15.576 26.0625 16.072L24.5025 14.656C24.9185 13.952 25.5025 13.376 26.2545 12.928C27.0065 12.464 27.9905 12.232 29.2065 12.232C30.8225 12.232 32.0625 12.608 32.9265 13.36C33.7905 14.112 34.2225 15.192 34.2225 16.6V22.864H35.5425V25H34.0785ZM28.7985 23.296C29.6145 23.296 30.2865 23.12 30.8145 22.768C31.3425 22.4 31.6065 21.912 31.6065 21.304V19.504H29.3985C27.5905 19.504 26.6865 20.064 26.6865 21.184V21.616C26.6865 22.176 26.8705 22.6 27.2385 22.888C27.6225 23.16 28.1425 23.296 28.7985 23.296ZM38.1064 7.24H40.7224V14.584H40.8424C41.1144 13.832 41.5544 13.256 42.1624 12.856C42.7864 12.44 43.5144 12.232 44.3464 12.232C45.9304 12.232 47.1544 12.808 48.0184 13.96C48.8824 15.096 49.3144 16.696 49.3144 18.76C49.3144 20.824 48.8824 22.432 48.0184 23.584C47.1544 24.72 45.9304 25.288 44.3464 25.288C43.5144 25.288 42.7864 25.08 42.1624 24.664C41.5544 24.248 41.1144 23.672 40.8424 22.936H40.7224V25H38.1064V7.24ZM43.5544 23.032C44.4664 23.032 45.1944 22.744 45.7384 22.168C46.2824 21.576 46.5544 20.8 46.5544 19.84V17.68C46.5544 16.72 46.2824 15.952 45.7384 15.376C45.1944 14.784 44.4664 14.488 43.5544 14.488C42.7544 14.488 42.0824 14.688 41.5384 15.088C40.9944 15.472 40.7224 15.984 40.7224 16.624V20.896C40.7224 21.536 40.9944 22.056 41.5384 22.456C42.0824 22.84 42.7544 23.032 43.5544 23.032ZM54.9735 25C54.0775 25 53.4055 24.776 52.9575 24.328C52.5255 23.864 52.3095 23.224 52.3095 22.408V7.24H54.9255V22.864H56.6535V25H54.9735ZM64.0493 25.288C63.1532 25.288 62.3532 25.136 61.6492 24.832C60.9452 24.528 60.3452 24.096 59.8493 23.536C59.3532 22.96 58.9692 22.272 58.6973 21.472C58.4413 20.656 58.3133 19.752 58.3133 18.76C58.3133 17.768 58.4413 16.872 58.6973 16.072C58.9692 15.256 59.3532 14.568 59.8493 14.008C60.3452 13.432 60.9452 12.992 61.6492 12.688C62.3532 12.384 63.1532 12.232 64.0493 12.232C64.9612 12.232 65.7612 12.392 66.4492 12.712C67.1532 13.032 67.7373 13.48 68.2013 14.056C68.6653 14.616 69.0092 15.272 69.2332 16.024C69.4733 16.776 69.5933 17.584 69.5933 18.448V19.432H61.0253V19.84C61.0253 20.8 61.3053 21.592 61.8652 22.216C62.4412 22.824 63.2573 23.128 64.3133 23.128C65.0812 23.128 65.7292 22.96 66.2573 22.624C66.7853 22.288 67.2333 21.832 67.6013 21.256L69.1372 22.768C68.6732 23.536 68.0013 24.152 67.1212 24.616C66.2412 25.064 65.2172 25.288 64.0493 25.288ZM64.0493 14.272C63.6013 14.272 63.1853 14.352 62.8013 14.512C62.4333 14.672 62.1133 14.896 61.8412 15.184C61.5852 15.472 61.3852 15.816 61.2413 16.216C61.0973 16.616 61.0253 17.056 61.0253 17.536V17.704H66.8333V17.464C66.8333 16.504 66.5853 15.736 66.0893 15.16C65.5933 14.568 64.9132 14.272 64.0493 14.272ZM75.2492 8.248V18.568C75.2492 19.992 75.5212 21.064 76.0652 21.784C76.6092 22.504 77.5372 22.864 78.8492 22.864C80.1612 22.864 81.0892 22.504 81.6332 21.784C82.1772 21.064 82.4492 19.992 82.4492 18.568V8.248H85.1132V18.136C85.1132 19.368 85.0012 20.432 84.7772 21.328C84.5532 22.224 84.1932 22.968 83.6972 23.56C83.2012 24.136 82.5532 24.568 81.7532 24.856C80.9692 25.144 80.0012 25.288 78.8492 25.288C77.6972 25.288 76.7212 25.144 75.9212 24.856C75.1372 24.568 74.4972 24.136 74.0012 23.56C73.5052 22.968 73.1452 22.224 72.9212 21.328C72.6972 20.432 72.5852 19.368 72.5852 18.136V8.248H75.2492ZM88.9423 25V12.52H91.5583V14.584H91.6783C91.9503 13.912 92.3583 13.352 92.9023 12.904C93.4623 12.456 94.2223 12.232 95.1823 12.232C96.4623 12.232 97.4543 12.656 98.1583 13.504C98.8783 14.336 99.2383 15.528 99.2383 17.08V25H96.6223V17.416C96.6223 15.464 95.8383 14.488 94.2703 14.488C93.9343 14.488 93.5983 14.536 93.2623 14.632C92.9423 14.712 92.6543 14.84 92.3983 15.016C92.1423 15.192 91.9343 15.416 91.7743 15.688C91.6303 15.96 91.5583 16.28 91.5583 16.648V25H88.9423ZM104.184 10.288C103.64 10.288 103.24 10.16 102.984 9.904C102.744 9.648 102.624 9.32 102.624 8.92V8.512C102.624 8.112 102.744 7.784 102.984 7.528C103.24 7.272 103.64 7.144 104.184 7.144C104.728 7.144 105.12 7.272 105.36 7.528C105.6 7.784 105.72 8.112 105.72 8.512V8.92C105.72 9.32 105.6 9.648 105.36 9.904C105.12 10.16 104.728 10.288 104.184 10.288ZM102.864 12.52H105.48V25H102.864V12.52ZM112.672 25C111.76 25 111.072 24.768 110.608 24.304C110.144 23.824 109.912 23.152 109.912 22.288V14.656H107.968V12.52H109.024C109.456 12.52 109.752 12.424 109.912 12.232C110.088 12.04 110.176 11.728 110.176 11.296V9.112H112.528V12.52H115.144V14.656H112.528V22.864H114.952V25H112.672Z" transform="translate(56 5.10101)" fill="white" fill-opacity="0.9"/>
<path d="M39.9997 23.8614C40.0126 25.9621 39.6119 28.0448 38.8204 29.9904C38.0288 31.936 36.8621 33.7065 35.3867 35.2006C33.9113 36.6948 32.1562 37.8833 30.2217 38.6983C28.2873 39.5133 26.2113 39.9388 24.1125 39.9505L16.1242 39.9997C11.8877 40.0259 7.8143 38.3668 4.79981 35.3873C1.78532 32.4078 0.0766025 28.352 0.0494497 24.1117L0.000332142 16.1386C-0.0131968 14.0389 0.386697 11.957 1.17717 10.012C1.96765 8.06699 3.13322 6.29688 4.6073 4.8028C6.08139 3.30872 7.83512 2.11994 9.76831 1.30435C11.7015 0.48877 13.7763 0.0623648 15.8742 0.0494939L23.8624 0.000332438C25.9603 -0.0132086 28.0403 0.387043 29.9836 1.17822C31.9268 1.96941 33.6954 3.13602 35.1881 4.61142C36.6809 6.08683 37.8686 7.84212 38.6834 9.77704C39.4983 11.712 39.9243 13.7886 39.9372 15.8883L39.9997 23.8614Z" fill="white" fill-opacity="0.9"/>
<path d="M16.1334 17.9353C16.1585 19.1859 15.7958 20.4135 15.0954 21.4489C14.3881 22.4899 13.4111 23.3181 12.2693 23.8447C11.0493 24.414 9.71893 24.7065 8.37311 24.7014C7.29753 24.715 6.22889 24.5271 5.22233 24.1471C4.28801 23.8016 3.42473 23.2877 2.67519 22.6308C1.96949 22.0036 1.3743 21.2618 0.914594 20.4365C0.452497 19.6297 0.142475 18.7446 0 17.8254L1.20269 17.4864C1.3208 18.2501 1.56172 18.9896 1.91608 19.6761C2.28298 20.3921 2.7598 21.0459 3.32912 21.6138C3.95633 22.229 4.70362 22.7078 5.52415 23.0202C7.19285 23.6547 9.02652 23.7063 10.7282 23.1668C11.4641 22.934 12.1586 22.5862 12.786 22.136C13.416 21.6779 13.9285 21.0766 14.2814 20.3816C14.6632 19.6418 14.8549 18.8184 14.8393 17.9857C14.8443 17.2939 14.6992 16.6093 14.414 15.9793C14.1481 15.3964 13.7523 14.8824 13.257 14.4767C12.7626 14.0743 12.2166 13.74 11.6336 13.4827C11.0098 13.2114 10.3558 13.0161 9.68555 12.9009L6.24667 12.2596C5.54185 12.1355 4.85313 11.9327 4.19341 11.6549C3.55606 11.3803 2.95665 11.0246 2.40995 10.5967C1.83292 10.1423 1.37469 9.55439 1.07465 8.88341C0.737392 8.13034 0.567327 7.31291 0.576195 6.48758C0.558335 5.27011 0.937219 4.08001 1.65541 3.09769C2.37319 2.10483 3.33594 1.3156 4.4495 0.807223C5.58254 0.278685 6.81686 0.00356636 8.06672 0.000978311C9.10919 -0.0150162 10.1454 0.165239 11.1215 0.532368C11.99 0.849688 12.7884 1.33361 13.472 1.95704C14.0666 2.50939 14.5821 3.14143 15.0039 3.83522C15.3815 4.45198 15.6507 5.1291 15.7996 5.83709L14.6244 6.22189C14.5321 5.79888 14.3941 5.38722 14.2128 4.9942C13.9854 4.5131 13.7014 4.06096 13.3668 3.6474C12.9966 3.17607 12.5661 2.75559 12.0864 2.39681C11.5435 1.99425 10.9377 1.68466 10.2938 1.48062C8.56802 0.93584 6.70244 1.04673 5.05313 1.79212C4.13514 2.2049 3.33953 2.84882 2.74378 3.66115C2.14282 4.45024 1.82106 5.41722 1.82919 6.40971C1.80996 6.97438 1.9068 7.53698 2.11369 8.0626C2.32058 8.58821 2.63311 9.06562 3.03188 9.46519C3.99852 10.3292 5.20078 10.8843 6.48447 11.0594L9.95535 11.7007C10.7456 11.8416 11.5142 12.0849 12.2418 12.4245C12.9472 12.7517 13.6017 13.1791 14.1854 13.6934C14.7817 14.2238 15.2588 14.875 15.5851 15.6039C15.9115 16.3327 16.0797 17.1227 16.0786 17.9216" transform="translate(12.1006 7.38962) rotate(0.23342)" fill="#262626"/>
<path d="M4.09281 0L4.27573 29.7394C4.27573 30.1124 4.12782 30.4701 3.86453 30.7339C3.60125 30.9976 3.24416 31.1458 2.87182 31.1458C2.49949 31.1458 2.1424 30.9976 1.87912 30.7339C1.61583 30.4701 1.46792 30.1124 1.46792 29.7394L1.28043 0H0L0.182919 29.7394C0.187164 30.4526 0.474046 31.1349 0.980457 31.6361C1.48687 32.1374 2.17133 32.4166 2.88326 32.4124C3.59519 32.4081 4.27627 32.1208 4.77668 31.6135C5.27709 31.1062 5.55583 30.4205 5.55158 29.7073L5.37324 0H4.09281Z" transform="translate(17.5518 4) rotate(0.23342)" fill="#262626"/>
</svg>
