<svg width="40" height="40" viewBox="0 0 40 40" fill="none" xmlns="http://www.w3.org/2000/svg">
<g opacity="0.85">
<path d="M37.8241 6.15351C37.6729 6.01259 37.4483 5.96561 37.2467 6.0254L1.39559 16.8466C1.18939 16.9106 1.03818 17.0772 1.00611 17.2779C0.974031 17.4786 1.07026 17.6793 1.24896 17.7946L9.68479 23.1881L11.4581 33.8427C11.4581 33.8555 11.4627 33.8683 11.4673 33.8769C11.4673 33.8812 11.4673 33.8854 11.4718 33.8897C11.4764 33.9025 11.481 33.9153 11.4856 33.9281C11.4856 33.9324 11.4902 33.9409 11.4948 33.9452C11.4993 33.9538 11.5039 33.9623 11.5085 33.9708C11.5131 33.9751 11.5131 33.9836 11.5177 33.9879C11.5223 33.9965 11.5268 34.005 11.5314 34.0135C11.536 34.0178 11.5406 34.0264 11.5406 34.0306C11.5452 34.0392 11.5543 34.0477 11.5589 34.0562C11.5635 34.0605 11.5635 34.0648 11.5681 34.0691C11.5772 34.0819 11.591 34.0947 11.6001 34.1075C11.6047 34.1118 11.6047 34.1118 11.6093 34.116C11.6185 34.1246 11.6276 34.1331 11.6368 34.1416L11.6414 34.1459C11.646 34.1459 11.646 34.1502 11.6506 34.1502C11.6597 34.1587 11.6689 34.163 11.678 34.1715C11.6826 34.1758 11.6872 34.1801 11.6918 34.1801C11.701 34.1844 11.7101 34.1929 11.7193 34.1972C11.7239 34.2014 11.7285 34.2014 11.733 34.2057C11.7468 34.2142 11.7559 34.2185 11.7697 34.2228C11.7789 34.2271 11.7834 34.2313 11.7926 34.2313C11.8018 34.2356 11.8109 34.2399 11.8201 34.2441C11.8293 34.2484 11.8338 34.2484 11.843 34.2527C11.8522 34.257 11.8613 34.257 11.8659 34.2612C11.8751 34.2612 11.8797 34.2655 11.8888 34.2655C11.898 34.2655 11.9072 34.2698 11.9163 34.2698C11.9255 34.2698 11.9301 34.274 11.9392 34.274C11.9438 34.274 11.9484 34.274 11.953 34.2783C11.9576 34.2783 11.9621 34.2783 11.9667 34.2783C11.9759 34.2783 11.9805 34.2783 11.9896 34.2783C11.9988 34.2783 12.008 34.2783 12.0171 34.2783C12.0217 34.2783 12.0263 34.2783 12.0309 34.2783C12.0355 34.2783 12.0355 34.2783 12.04 34.2783C12.0538 34.2783 12.0675 34.2783 12.0813 34.2783C12.0859 34.2783 12.0904 34.2783 12.095 34.2783C12.1134 34.2783 12.1317 34.274 12.1454 34.2698C12.15 34.2698 12.1546 34.2655 12.1592 34.2655C12.1729 34.2612 12.1821 34.2612 12.1958 34.257C12.205 34.257 12.2096 34.2527 12.2187 34.2527C12.2279 34.2484 12.2371 34.2484 12.2462 34.2441C12.2554 34.2399 12.26 34.2399 12.2692 34.2356C12.2829 34.2313 12.2921 34.2271 12.3012 34.2185C12.3104 34.2142 12.3196 34.21 12.3241 34.2057C12.3333 34.2014 12.3425 34.1929 12.3562 34.1886C12.3608 34.1844 12.37 34.1801 12.3745 34.1758C12.3837 34.1673 12.3929 34.163 12.402 34.1545C12.4066 34.1502 12.4112 34.1459 12.4158 34.1459C12.4295 34.1331 12.4433 34.1203 12.457 34.1075L17.9877 28.4791L28.0365 34.906C28.1327 34.9658 28.2473 35 28.3618 35C28.426 35 28.4901 34.9915 28.5497 34.9701C28.7238 34.9146 28.8567 34.7822 28.9071 34.6199L37.9799 6.67877C38.0349 6.49941 37.9753 6.29016 37.8241 6.15351ZM33.6176 8.24173L10.2209 22.2358L2.85731 17.5256L33.6176 8.24173ZM15.2018 25.9425C15.1972 25.9468 15.1972 25.951 15.1926 25.951C15.188 25.9553 15.1788 25.9639 15.1743 25.9681C15.1651 25.9767 15.1605 25.9852 15.1514 25.9937C15.1468 25.998 15.1422 26.0066 15.1376 26.0108C15.1284 26.0194 15.1239 26.0322 15.1147 26.0407C15.1101 26.045 15.1055 26.0493 15.1055 26.0578C15.0964 26.0706 15.0918 26.0834 15.0872 26.0962C15.0872 26.1005 15.0826 26.1005 15.0826 26.1048L15.078 26.1133L12.2966 31.8912L10.8349 23.1369L32.7378 10.0396L15.2018 25.9425ZM13.9966 30.9602L15.8433 27.1254L17.0255 27.8813L13.9966 30.9602ZM28.0273 33.6207L16.4985 26.25L36.2295 8.35703L28.0273 33.6207Z" fill="white"/>
</g>
</svg>
