<svg width="40" height="40" viewBox="0 0 40 40" fill="none" xmlns="http://www.w3.org/2000/svg">
<path d="M35.6576 11.4602C35.625 11.415 35.5897 11.3699 35.5489 11.33C35.5136 11.2928 35.4783 11.2556 35.4375 11.2238C35.3424 11.1414 35.2418 11.0671 35.125 11.0113L26.8016 6.88877L26.3071 6.6444H26.3043C26.1495 6.56737 25.9837 6.50893 25.8152 6.46909C25.6304 6.42393 25.4402 6.40002 25.2527 6.40002C24.4185 6.40002 23.6359 6.82768 23.2065 7.51299L21.9783 9.4919L18.3152 15.3835L16.3397 11.6063C16.1875 11.3619 15.9755 11.1706 15.7228 11.0458L7.36685 6.91268C7.36685 6.91002 7.36413 6.91002 7.36141 6.90737L7.09783 6.77987C6.75 6.60721 6.3913 6.51956 6.03261 6.51956C4.875 6.51956 4 7.43596 4 8.65252V27.0497C4 28.0538 4.66033 29.1083 5.57337 29.5599L13.1549 33.3105C13.5408 33.5017 13.9348 33.6 14.3288 33.6C15.6005 33.6 16.5217 32.6225 16.5217 31.2731V25.3364L31.8261 32.92V32.9121L32.3614 33.1777C32.8288 33.4088 33.2962 33.5257 33.7527 33.5257C35.0543 33.5257 36 32.5774 36 31.2731V12.4085C36 12.0525 35.8696 11.7285 35.6576 11.4602ZM15.1304 31.2731C15.1304 31.8788 14.7989 32.24 14.3288 32.24C14.163 32.24 13.9783 32.1949 13.7826 32.0992L6.20109 28.346C5.75544 28.1255 5.3913 27.5411 5.3913 27.0497V8.65252C5.3913 8.16643 5.65489 7.87956 6.03261 7.87956C6.16576 7.87956 6.31522 7.91409 6.47011 7.99112L6.73641 8.12393H6.73913L15.0951 12.2597C15.1087 12.2677 15.1196 12.281 15.1304 12.2916V31.2731ZM23.8859 9.04034L24.3967 8.21956C24.5788 7.92737 24.913 7.76002 25.2527 7.76002C25.3315 7.76002 25.413 7.77065 25.4918 7.7919C25.5516 7.80518 25.6141 7.82643 25.6793 7.85831L34.4918 12.2199C34.4946 12.2199 34.4946 12.2225 34.4946 12.2225L34.5027 12.2252C34.5082 12.2278 34.5082 12.2358 34.5136 12.2385C34.5571 12.273 34.5761 12.3314 34.5462 12.3792L25.769 26.4999L24.8723 27.9396L19.0571 16.8072L23.8859 9.04034ZM16.5217 23.8117V14.9425L22.769 26.9063L17.1495 24.1252L16.5217 23.8117ZM34.6087 31.2731C34.6087 31.8416 34.2636 32.1656 33.7554 32.1656C33.5272 32.1656 33.2663 32.1019 32.9918 31.9664L31.7337 31.3422L26.1141 28.5611L34.6087 14.8974V31.2731Z" fill="#F96F21"/>
</svg>
