<svg width="40" height="40" viewBox="0 0 40 40" fill="none" xmlns="http://www.w3.org/2000/svg">
<g opacity="0.85">
<path d="M8.4191 4.80005C6.42897 4.80005 4.80005 6.42897 4.80005 8.4191V31.581C4.80005 33.5711 6.42897 35.2001 8.4191 35.2001H31.581C33.5711 35.2001 35.2001 33.5711 35.2001 31.581V8.4191C35.2001 6.42897 33.5711 4.80005 31.581 4.80005H8.4191ZM8.4191 6.24767H31.581C32.7887 6.24767 33.7524 7.21143 33.7524 8.4191V31.581C33.7524 32.7887 32.7887 33.7524 31.581 33.7524H8.4191C7.21143 33.7524 6.24767 32.7887 6.24767 31.581V8.4191C6.24767 7.21143 7.21143 6.24767 8.4191 6.24767ZM12.0381 9.8752C11.2454 9.8752 10.5321 10.1121 10.0038 10.5566C9.47563 11.001 9.15139 11.665 9.15139 12.376C9.15139 13.7275 10.3236 14.7811 11.8148 14.8853C11.8157 14.8858 11.8167 14.8863 11.8176 14.8867C11.8887 14.9109 11.9631 14.9238 12.0381 14.9249C13.6834 14.9249 14.9249 13.7725 14.9249 12.376C14.9248 12.3633 14.9243 12.3506 14.9235 12.3378C14.8498 10.9624 13.6236 9.8752 12.0381 9.8752ZM12.0381 11.3059C13.0459 11.3059 13.4438 11.7559 13.4872 12.3944C13.4784 13.0142 13.095 13.4942 12.0381 13.4942C11.0354 13.4942 10.582 12.9807 10.582 12.376C10.582 12.0737 10.6924 11.8458 10.9242 11.6508C11.1559 11.4558 11.528 11.3059 12.0381 11.3059ZM9.86672 15.6572C9.67476 15.6572 9.49066 15.7335 9.35493 15.8692C9.21919 16.0049 9.14293 16.189 9.14291 16.381V30.1334C9.14293 30.3253 9.21919 30.5094 9.35493 30.6452C9.49066 30.7809 9.67476 30.8572 9.86672 30.8572H14.2096C14.4015 30.8572 14.5856 30.7809 14.7214 30.6452C14.8571 30.5094 14.9334 30.3253 14.9334 30.1334V25.8881V16.381C14.9334 16.189 14.8571 16.0049 14.7214 15.8692C14.5856 15.7335 14.4015 15.6572 14.2096 15.6572H9.86672ZM16.381 15.6572C16.189 15.6572 16.0049 15.7335 15.8692 15.8692C15.7335 16.0049 15.6572 16.189 15.6572 16.381V30.1334C15.6572 30.3253 15.7335 30.5094 15.8692 30.6452C16.0049 30.7809 16.189 30.8572 16.381 30.8572H20.7239C20.9158 30.8572 21.0999 30.7809 21.2356 30.6452C21.3714 30.5094 21.4476 30.3253 21.4477 30.1334V22.8953C21.4477 22.2948 21.6115 21.6974 21.9 21.3063C22.1886 20.9152 22.5525 20.6805 23.2445 20.6928C23.958 20.705 24.3357 20.9494 24.6214 21.3332C24.9071 21.7169 25.0667 22.2921 25.0667 22.8953V30.1334C25.0667 30.3253 25.143 30.5094 25.2787 30.6452C25.4145 30.7809 25.5986 30.8572 25.7905 30.8572H30.1334C30.3253 30.8572 30.5094 30.7809 30.6452 30.6452C30.7809 30.5094 30.8572 30.3253 30.8572 30.1334V22.3609C30.8572 20.2173 30.2223 18.5194 29.1339 17.3706C28.0455 16.2218 26.5318 15.6572 24.931 15.6572C23.4095 15.6572 22.2517 16.1674 21.4477 16.6878V16.381C21.4476 16.189 21.3714 16.0049 21.2356 15.8692C21.0999 15.7335 20.9158 15.6572 20.7239 15.6572H16.381ZM10.5905 17.1048H13.4858V25.8881V29.4096H10.5905V17.1048ZM17.1048 17.1048H20V18.2344C20.0001 18.3861 20.0478 18.534 20.1365 18.6572C20.2252 18.7804 20.3504 18.8725 20.4943 18.9206C20.6383 18.9688 20.7937 18.9705 20.9387 18.9254C21.0836 18.8804 21.2107 18.791 21.3021 18.6698C21.3021 18.6698 22.4387 17.1048 24.931 17.1048C26.2001 17.1048 27.2884 17.5265 28.0835 18.3658C28.8787 19.2052 29.4096 20.4982 29.4096 22.3609V29.4096H26.5143V22.8953C26.5143 22.0508 26.312 21.1778 25.7835 20.468C25.2549 19.7582 24.3659 19.264 23.2699 19.2451C22.1682 19.2256 21.2649 19.7301 20.7352 20.4482C20.2054 21.1663 20 22.0482 20 22.8953V29.4096H17.1048V17.1048Z" fill="white"/>
</g>
</svg>
