<svg width="40" height="40" viewBox="0 0 40 40" fill="none" xmlns="http://www.w3.org/2000/svg">
<g opacity="0.85">
<path d="M22.9176 4.80005C22.2338 4.80005 21.5784 5.07713 21.0941 5.52386C20.6097 5.97058 20.2649 6.56151 20 7.26553C19.5298 8.52088 19.3332 10.1523 19.2933 12.0608C15.7944 12.1682 12.5748 13.0673 9.99332 14.5489C9.21547 13.825 8.22392 13.4631 7.23523 13.4631C6.20664 13.4631 5.17521 13.8562 4.38596 14.6393C2.80462 16.2085 2.80462 18.7249 4.38596 20.2941L4.56831 20.475C4.18081 21.4731 3.95287 22.5249 3.95287 23.6191C3.95287 26.896 5.82484 29.8337 8.73964 31.8977C11.6544 33.9617 15.6292 35.2001 20 35.2001C24.3707 35.2001 28.3455 33.9617 31.2603 31.8977C34.1751 29.8337 36.047 26.896 36.047 23.6191C36.047 22.5249 35.8191 21.4731 35.4316 20.475L35.6139 20.2941C37.1953 18.7249 37.1953 16.2085 35.6139 14.6393C34.8247 13.8562 33.7933 13.4631 32.7647 13.4631C31.776 13.4631 30.7844 13.825 30.0066 14.5489C27.4365 13.0758 24.2311 12.1767 20.7522 12.0608C20.7977 10.2625 20.9943 8.75838 21.3676 7.76314C21.5784 7.2005 21.8434 6.79618 22.097 6.56433C22.3506 6.33249 22.5814 6.24767 22.9176 6.24767C23.2538 6.24767 23.4162 6.33814 23.6698 6.54172C23.9234 6.74529 24.2197 7.07892 24.6044 7.4691C25.291 8.16746 26.3424 8.93651 28.0919 9.09767C28.4167 10.763 29.9012 12.0381 31.6706 12.0381C33.6764 12.0381 35.3176 10.4096 35.3176 8.4191C35.3176 6.42862 33.6764 4.80005 31.6706 4.80005C29.924 4.80005 28.4423 6.03844 28.0919 7.67267C26.7926 7.54826 26.2199 7.05064 25.6529 6.47386C25.3252 6.14023 25.0232 5.75005 24.6044 5.41076C24.1855 5.07148 23.6014 4.80005 22.9176 4.80005ZM31.6706 6.24767C32.8872 6.24767 33.8588 7.2118 33.8588 8.4191C33.8588 9.62639 32.8872 10.5905 31.6706 10.5905C30.4539 10.5905 29.4823 9.62639 29.4823 8.4191C29.4823 7.2118 30.4539 6.24767 31.6706 6.24767ZM20 13.4858C24.0915 13.4858 27.787 14.6535 30.4169 16.5167C33.0468 18.38 34.5882 20.8878 34.5882 23.6191C34.5882 26.3503 33.0468 28.8582 30.4169 30.7215C27.787 32.5847 24.0915 33.7524 20 33.7524C15.9084 33.7524 12.2129 32.5847 9.58302 30.7215C6.95315 28.8582 5.4117 26.3503 5.4117 23.6191C5.4117 20.8878 6.95315 18.38 9.58302 16.5167C12.2129 14.6535 15.9084 13.4858 20 13.4858ZM7.23523 14.8881C7.7481 14.8881 8.26666 15.0408 8.71685 15.3631C7.25517 16.4036 6.05848 17.6618 5.22934 19.0727C4.37741 18.0435 4.4344 16.627 5.4117 15.6572C5.93311 15.1398 6.58559 14.8881 7.23523 14.8881ZM32.7647 14.8881C33.4143 14.8881 34.0668 15.1398 34.5882 15.6572C35.5655 16.627 35.6225 18.0435 34.7706 19.0727C33.9414 17.6618 32.7447 16.4036 31.2831 15.3631C31.7332 15.0408 32.2518 14.8881 32.7647 14.8881ZM14.1646 18.5524C12.5605 18.5524 11.247 19.8559 11.247 21.4477C11.247 23.0395 12.5605 24.3429 14.1646 24.3429C15.7688 24.3429 17.0823 23.0395 17.0823 21.4477C17.0823 19.8559 15.7688 18.5524 14.1646 18.5524ZM25.8353 18.5524C24.2311 18.5524 22.9176 19.8559 22.9176 21.4477C22.9176 23.0395 24.2311 24.3429 25.8353 24.3429C27.4394 24.3429 28.7529 23.0395 28.7529 21.4477C28.7529 19.8559 27.4394 18.5524 25.8353 18.5524ZM14.1646 20C14.9795 20 15.6235 20.639 15.6235 21.4477C15.6235 22.2563 14.9795 22.8953 14.1646 22.8953C13.3498 22.8953 12.7058 22.2563 12.7058 21.4477C12.7058 20.639 13.3498 20 14.1646 20ZM25.8353 20C26.6501 20 27.2941 20.639 27.2941 21.4477C27.2941 22.2563 26.6501 22.8953 25.8353 22.8953C25.0204 22.8953 24.3764 22.2563 24.3764 21.4477C24.3764 20.639 25.0204 20 25.8353 20ZM26.6786 27.125C26.6387 27.1307 26.6017 27.1364 26.5647 27.1477C26.3339 27.1929 26.1401 27.3428 26.0404 27.5548C26.0404 27.5548 25.6586 28.0807 24.6955 28.6858C23.7325 29.2908 22.2309 29.9072 20 29.9072C17.769 29.9072 16.2674 29.2908 15.3044 28.6858C14.3413 28.0807 13.9595 27.5548 13.9595 27.5548C13.7942 27.2975 13.4837 27.1703 13.1845 27.2381C12.948 27.2975 12.7571 27.4672 12.6745 27.6962C12.5919 27.9224 12.6289 28.174 12.7742 28.3691C12.7742 28.3691 13.3355 29.1721 14.5066 29.9072C15.6776 30.6423 17.4897 31.3548 20 31.3548C22.5102 31.3548 24.3223 30.6423 25.4933 29.9072C26.6644 29.1721 27.2257 28.3691 27.2257 28.3691C27.4451 28.1599 27.5106 27.8347 27.3881 27.5576C27.2656 27.2806 26.9835 27.1081 26.6786 27.125Z" fill="white"/>
</g>
</svg>
