<svg width="40" height="40" viewBox="0 0 40 40" fill="none" xmlns="http://www.w3.org/2000/svg">
<g opacity="0.85">
<path d="M26.7361 6.40002C22.6236 6.40002 19.2794 9.71876 19.2794 13.7999C19.2794 14.0451 19.3412 14.285 19.3654 14.5249C14.2805 14.0424 9.78387 11.6114 6.72972 7.89279C6.58735 7.71419 6.36709 7.61823 6.13608 7.63422C5.90776 7.65021 5.70361 7.78083 5.59079 7.97809C4.9488 9.07367 4.5808 10.3345 4.5808 11.6887C4.5808 13.3281 5.17175 14.8288 6.08504 16.0603C5.90776 15.983 5.71435 15.9404 5.54781 15.8471C5.33561 15.7351 5.08042 15.7405 4.87359 15.8631C4.66676 15.9857 4.54051 16.207 4.53782 16.4442V16.5295C4.53782 19.0432 5.84866 21.2264 7.78269 22.5645C7.7612 22.5619 7.73971 22.5699 7.71822 22.5645C7.48184 22.5245 7.24277 22.6072 7.08429 22.7858C6.92581 22.9644 6.87477 23.2123 6.94461 23.4389C7.71285 25.8086 9.67373 27.6186 12.102 28.2797C10.168 29.4206 7.92505 30.0923 5.50483 30.0923C4.98104 30.0923 4.47873 30.0657 3.9791 30.007C3.65677 29.9644 3.34786 30.151 3.24041 30.4549C3.13028 30.7587 3.25116 31.0973 3.52783 31.2652C6.63033 33.2405 10.313 34.4 14.2724 34.4C20.6896 34.4 25.7235 31.7397 29.1 27.9385C32.4764 24.1373 34.2359 19.2005 34.2359 14.5889C34.2359 14.3943 34.2197 14.2051 34.2144 14.0131C35.4742 13.0562 36.5997 11.9339 37.4807 10.6224C37.6553 10.3692 37.6365 10.0306 37.4351 9.79606C37.2363 9.56149 36.9005 9.48951 36.6212 9.62013C36.2666 9.7774 35.8529 9.7934 35.4822 9.91868C35.9711 9.27093 36.3902 8.57253 36.6427 7.78616C36.7286 7.51693 36.6346 7.22104 36.4116 7.04511C36.1887 6.87184 35.8771 6.85052 35.6327 6.99713C34.4588 7.68753 33.1587 8.17268 31.7861 8.46857C30.4538 7.23171 28.6997 6.40002 26.7361 6.40002ZM26.7361 7.76484C28.4902 7.76484 30.075 8.50855 31.1844 9.68411C31.3509 9.85471 31.5954 9.92668 31.8291 9.87603C32.7262 9.7001 33.5778 9.44153 34.4078 9.10833C33.9296 9.74808 33.3387 10.2945 32.6457 10.7077C32.3314 10.8597 32.1836 11.2195 32.2992 11.5474C32.412 11.8726 32.7558 12.0619 33.0969 11.9872C33.7846 11.9046 34.397 11.6274 35.0525 11.4541C34.4642 12.0859 33.8195 12.6563 33.1184 13.1601C32.9277 13.2987 32.823 13.5226 32.8391 13.7572C32.8498 14.0344 32.8606 14.309 32.8606 14.5889C32.8606 18.8539 31.2113 23.4842 28.0685 27.0215C24.9257 30.5588 20.3109 33.0352 14.2724 33.0352C11.5299 33.0352 8.94042 32.4328 6.60078 31.3718C9.50182 31.1506 12.1772 30.1323 14.3369 28.4503C14.5625 28.2717 14.6512 27.9731 14.5598 27.7012C14.4685 27.4293 14.216 27.2428 13.9286 27.2348C11.6615 27.1948 9.76238 25.8859 8.7497 24.036C8.78731 24.036 8.81954 24.036 8.85715 24.036C9.53674 24.036 10.2083 23.9507 10.8341 23.7801C11.135 23.6921 11.3418 23.4149 11.3311 23.103C11.3203 22.7911 11.0974 22.5245 10.7912 22.4579C8.34409 21.9674 6.50945 19.9895 6.08504 17.5318C6.77807 17.769 7.48721 17.9556 8.25545 17.9796C8.56973 17.9983 8.85446 17.8037 8.95116 17.5078C9.04786 17.2119 8.92967 16.8867 8.66374 16.7214C7.03057 15.6365 5.95611 13.7892 5.95611 11.6887C5.95611 10.9103 6.16025 10.1959 6.42887 9.5135C9.86714 13.2587 14.6807 15.7458 20.1175 16.0177C20.3324 16.0284 20.5419 15.9404 20.6816 15.7778C20.8212 15.6125 20.875 15.3939 20.8266 15.186C20.7219 14.7435 20.6547 14.2744 20.6547 13.7999C20.6547 10.4571 23.3677 7.76484 26.7361 7.76484Z" fill="white"/>
</g>
</svg>
