<?xml version="1.0" encoding="utf-8"?>
<!-- Generator: Adobe Illustrator 21.1.0, SVG Export Plug-In . SVG Version: 6.00 Build 0)  -->
<svg version="1.1" id="Layer_1" xmlns="http://www.w3.org/2000/svg" xmlns:xlink="http://www.w3.org/1999/xlink" x="0px" y="0px"
	 viewBox="0 0 421 198" style="enable-background:new 0 0 421 198;" xml:space="preserve">
<style type="text/css">
	.st0{fill:#0027FF;}
	.st1{fill:#FFFFFF;}
</style>
<g>
	<path d="M107.1,176.3c-2.2,0-4.3-0.3-6.1-1c-1.8-0.7-3.4-1.6-4.6-2.7c-1.2-1.1-2.1-2.3-2.8-3.7c-0.7-1.3-1.1-2.7-1.3-4.2l6-1.7
		c0.5,2.3,1.5,4.2,3,5.6c1.5,1.4,3.5,2,5.8,2c2,0,3.7-0.5,5.1-1.6c1.4-1,2.1-2.4,2.1-4c0-1.6-0.6-2.8-1.6-3.8c-1.1-1-2.5-1.6-4.3-2
		l-4.9-1c-3.2-0.6-5.7-1.9-7.5-3.9c-1.8-1.9-2.7-4.3-2.7-6.9c0-2.1,0.6-4.1,1.7-6c1.2-1.8,2.8-3.3,4.8-4.4c2-1.1,4.2-1.6,6.5-1.7
		c1.7,0,3.3,0.2,4.8,0.6c1.5,0.4,2.7,0.9,3.7,1.6c1,0.6,1.8,1.4,2.6,2.3c0.7,0.9,1.3,1.7,1.7,2.6c0.4,0.9,0.7,1.8,0.9,2.7l-5.8,1.9
		c-0.4-1.6-1.3-3-2.6-4.1c-1.4-1.2-3-1.8-5-1.8c-1.9,0-3.5,0.6-4.9,1.7c-1.3,1.1-2,2.5-2,4.1c0,1.2,0.5,2.3,1.4,3.3
		c0.9,1,2.1,1.7,3.7,1.9l5,1c3.5,0.7,6.2,2,8.1,4c1.9,2,2.8,4.5,2.8,7.5c0,1.5-0.3,2.9-0.9,4.2c-0.6,1.4-1.5,2.6-2.6,3.7
		c-1.1,1.1-2.6,2-4.3,2.7C111.2,175.9,109.3,176.2,107.1,176.3"/>
	<path d="M196.3,161.6c0,2.5-0.5,4.8-1.6,6.9c-1.1,2.1-2.7,3.9-4.8,5.2c-2.1,1.3-4.4,2-7,2c-1.5,0-3.2-0.4-5-1.2
		c-1.8-0.8-3.1-1.9-4-3.3l0,4.1l-5.9,0l-0.2-39.8l6,0l0.1,16.7c0.9-1.4,2.1-2.5,3.9-3.4c1.7-0.8,3.4-1.2,5-1.2c2,0,3.9,0.4,5.6,1.2
		c1.7,0.8,3.1,1.9,4.2,3.2c1.1,1.3,2,2.8,2.6,4.5C195.9,158.2,196.3,159.9,196.3,161.6 M173.9,161.8c0,2.4,0.8,4.4,2.3,6
		c1.5,1.6,3.5,2.5,5.9,2.4c2.4,0,4.3-0.9,5.8-2.5c1.5-1.7,2.2-3.7,2.2-6.1c0-2.4-0.8-4.4-2.3-6.1c-1.5-1.6-3.5-2.5-5.9-2.4
		c-2.4,0-4.3,0.9-5.8,2.5C174.6,157.4,173.9,159.4,173.9,161.8"/>
	<path d="M215.9,163.3c0.1,1.3,0.5,2.6,1.3,3.6c0.8,1.1,1.8,1.9,3,2.5c1.2,0.6,2.5,0.9,3.8,0.9c1.7,0,3.2-0.4,4.5-1.1
		c1.3-0.8,2.2-1.9,2.7-3.5l5.1,1.5c-0.5,1.7-1.4,3.2-2.6,4.4c-1.3,1.3-2.7,2.2-4.4,2.9c-1.6,0.6-3.4,1-5.2,1c-2.6,0-5-0.6-7.2-1.8
		c-2.2-1.2-3.9-2.9-5.2-5c-1.3-2.1-1.9-4.5-1.9-7.2c0-2.5,0.6-4.9,1.7-7.1c1.2-2.2,2.8-3.9,4.9-5.2c2.1-1.3,4.4-1.9,7-2
		c4.1,0,7.4,1.2,9.7,3.8c2.4,2.6,3.6,5.9,3.6,10.1c0,0.7,0,1.3-0.1,1.9L215.9,163.3z M223.4,152.6c-1.9,0-3.5,0.6-4.8,1.7
		c-1.3,1.1-2.1,2.6-2.4,4.5l14.2-0.1c-0.1-1.9-0.8-3.4-2.2-4.5C227,153.1,225.3,152.6,223.4,152.6"/>
	<path d="M271.8,159.4c0,2.3-0.3,4.5-1,6.4c-0.6,1.9-1.6,3.6-2.9,5.1c-1.3,1.4-2.9,2.5-4.9,3.3c-2,0.8-4.2,1.2-6.8,1.2
		c-2.6,0-4.8-0.4-6.8-1.2c-2-0.8-3.6-1.9-4.9-3.3c-1.2-1.4-2.2-3.1-2.8-4.9c-0.6-1.9-1-3.9-1-6.2l-0.2-24.6l6.2,0l0.2,24.4
		c0,3.1,0.9,5.5,2.6,7.3c1.7,1.8,4,2.7,6.7,2.7c2.9,0,5.1-0.9,6.7-2.8c1.6-1.8,2.4-4.2,2.4-7.1l-0.2-24.6l6.2,0L271.8,159.4z"/>
	<path d="M293.9,159.5c0-2-0.5-3.7-1.5-4.9c-1-1.2-2.5-1.8-4.5-1.8c-1.9,0-3.4,0.6-4.6,1.9c-1.1,1.3-1.7,2.9-1.7,5l0.1,15.1l-6,0
		l-0.2-27.1l5.9,0l0,3.6c0.8-1.1,1.7-2,2.8-2.6c1.1-0.7,2-1.1,2.9-1.3c0.8-0.2,1.7-0.3,2.5-0.3c3.3,0,5.8,1,7.6,3
		c1.7,2,2.6,4.7,2.6,7.9l0.1,16.7l-6,0L293.9,159.5z"/>
	<rect x="304.3" y="147.5" transform="matrix(1 -6.114551e-03 6.114551e-03 1 -0.9788 1.8821)" width="6" height="27.1"/>
	<rect x="323" y="169.3" transform="matrix(1 -6.219379e-03 6.219379e-03 1 -1.0625 2.0299)" width="5.6" height="5.2"/>
	<polygon points="317,168.5 323,169.9 322.9,152.8 328.4,152.8 328.4,147.3 322.9,147.4 322.8,139 316.8,139 316.8,147.4 312,147.4 
		312.1,152.9 316.9,152.8 	"/>
	<path d="M303.4,139.6l0-1c0-1.9,1.1-3.2,3.7-3.2c2.6,0,3.8,1.3,3.8,3.2l0,1c0,1.9-1.1,3.2-3.7,3.2
		C304.5,142.8,303.4,141.4,303.4,139.6"/>
	<path d="M323,168.4l-6,0c0,3.3,2.7,6,6.1,6L323,168.4z"/>
	<path d="M162.8,170.3l0-1.2h0l-0.1-10.8c0-1.9-0.3-3.5-0.9-4.8c-1.7-3.7-5.1-5.5-10.2-5.5c-2.1,0-3.9,0.4-5.5,1.1
		c-1.7,0.8-3.2,1.9-4.2,3.3c-1.1,1.4-1.7,2.8-1.8,4.1l5.5,1.2c0.2-1.3,0.9-2.4,1.9-3.3c1-0.8,2.4-1.3,4-1.3c1.7,0,3,0.4,3.9,1.2
		c0.9,0.8,1.4,1.8,1.4,2.9c0,1.5-0.8,2.3-2.5,2.3l-3.3,0c-1,0-2,0.1-3,0.3c-1,0.2-2,0.5-3,0.9c-1,0.4-1.9,0.9-2.7,1.5
		c-0.8,0.6-1.4,1.4-1.9,2.4c-0.5,1-0.7,2.1-0.7,3.3l0,0.3c0,2.3,0.9,4.2,2.6,5.7c1.7,1.5,3.9,2.2,6.6,2.2c1.5,0,3-0.3,4.4-1
		c1.4-0.7,2.7-1.9,3.6-3.4c0,0,0,0,0,0c1,2.2,3.2,3.8,5.8,3.8v0l2.8,0l0-5.2L162.8,170.3z M155,169.4c-1.2,1.2-2.8,1.8-4.9,1.8
		c-1.3,0-2.3-0.3-3.1-1c-0.8-0.7-1.2-1.6-1.2-2.7c0-1.2,0.5-2.1,1.6-2.8c1.1-0.7,2.3-1,3.6-1l5.9,0l0,0.9
		C156.8,166.6,156.2,168.2,155,169.4"/>
	<path d="M314.6,147.4l2.3,0l0-2.3C316.8,146.4,315.8,147.4,314.6,147.4"/>
	<path d="M132,170.5l0-0.8h0l-0.1-15.6l5.5,0l0-5.4l-5.5,0l-0.1-8.4l-6,0l0.1,8.4h0l0-2.3c0,1.2-1,2.3-2.2,2.3l-2.5,0l0,5.4l4.8,0
		l0.1,15.6c0,3.3,2.7,6,6.1,6l5.6,0l0-5.2L132,170.5z"/>
	<path d="M204.7,170l0-0.8h0l-0.2-33.7l-6,0l0.2,33.7c0,3.3,2.7,6,6.1,6l5.6,0l0-5.2L204.7,170z"/>
</g>
<path d="M255.3,75c0.1,19.8-15.8,35.9-35.6,36l-17.9,0.1c-19.8,0.1-35.9-15.8-36-35.6l-0.1-17.9c-0.1-19.8,15.8-35.9,35.5-36
	l17.9-0.1c19.8-0.1,35.9,15.8,36,35.5L255.3,75z"/>
<path class="st1" d="M228.2,78.6c0,2.9-0.7,5.4-2.3,7.7c-1.5,2.3-3.6,4-6.2,5.2c-2.6,1.2-5.4,1.8-8.5,1.9c-2.4,0-4.7-0.4-6.9-1.2
	s-4-1.9-5.6-3.3c-1.6-1.4-2.8-3-3.9-4.8c-1-1.8-1.7-3.7-2-5.7l2.6-0.7c0.3,1.6,0.8,3.2,1.6,4.8c0.8,1.5,1.8,3,3.1,4.2
	c1.3,1.3,2.9,2.3,4.8,3.1c1.9,0.8,4,1.1,6.3,1.1c1.7,0,3.4-0.3,5.1-0.8c1.6-0.5,3.1-1.3,4.5-2.3c1.4-1,2.4-2.2,3.3-3.8
	c0.8-1.6,1.2-3.3,1.2-5.2c0-1.6-0.3-3.1-0.9-4.4c-0.6-1.3-1.5-2.4-2.5-3.3c-1.1-0.9-2.3-1.6-3.6-2.2c-1.3-0.6-2.7-1-4.3-1.3
	l-7.5-1.4c-1.6-0.3-3.1-0.7-4.5-1.3c-1.4-0.6-2.7-1.4-3.9-2.3c-1.2-1-2.2-2.2-2.9-3.7c-0.7-1.5-1.1-3.3-1.1-5.2
	c0-2.7,0.8-5.2,2.4-7.4c1.6-2.2,3.6-3.9,6.1-5c2.5-1.2,5.1-1.7,7.9-1.8c2.4,0,4.6,0.4,6.7,1.2c2.1,0.8,3.8,1.8,5.1,3.1
	c1.4,1.3,2.5,2.7,3.4,4.1c0.9,1.4,1.4,2.9,1.7,4.4l-2.6,0.8c-0.2-0.9-0.5-1.7-0.9-2.7c-0.4-0.9-1-1.9-1.9-2.9
	c-0.8-1-1.7-1.9-2.8-2.7c-1.1-0.8-2.4-1.4-3.9-2c-1.6-0.5-3.2-0.8-5-0.7c-2.3,0-4.4,0.5-6.5,1.4c-2.1,0.9-3.7,2.3-5.1,4.1
	c-1.3,1.8-2,3.8-2,6c0,2.7,0.9,5,2.6,6.7c1.7,1.7,4.2,2.9,7.5,3.5l7.6,1.4c1.8,0.3,3.5,0.8,5,1.6c1.6,0.7,3,1.7,4.3,2.8
	c1.3,1.1,2.3,2.5,3,4C227.8,75,228.2,76.7,228.2,78.6"/>
<path class="st1" d="M213.8,32l0.4,64.9c0,1.7-1.4,3.1-3.1,3.1c-1.7,0-3.1-1.4-3.1-3L207.6,32l-2.8,0l0.4,64.9
	c0,3.2,2.7,5.9,5.9,5.8c3.2,0,5.9-2.7,5.8-5.9L216.6,32L213.8,32z"/>
</svg>
